<?xml version="1.0" encoding="UTF-8" standalone="no"?>
<!DOCTYPE svg PUBLIC "-//W3C//DTD SVG 1.1//EN"
 "http://www.w3.org/Graphics/SVG/1.1/DTD/svg11.dtd">
<!-- Generated by graphviz version 9.0.0 (20230911.1827)
 -->
<!-- Pages: 1 -->
<svg width="2389pt" height="857pt"
 viewBox="0.00 0.00 2389.00 856.50" xmlns="http://www.w3.org/2000/svg" xmlns:xlink="http://www.w3.org/1999/xlink">
<g id="graph0" class="graph" transform="scale(1 1) rotate(0) translate(4 852.5)">
<polygon fill="white" stroke="none" points="-4,4 -4,-852.5 2385,-852.5 2385,4 -4,4"/>
<g id="clust1" class="cluster">
<title>cluster_karamazov</title>
<polygon fill="lightgrey" stroke="lightgrey" points="1111,-548 1111,-840.5 1656,-840.5 1656,-548 1111,-548"/>
<text text-anchor="middle" x="1383.5" y="-823.2" font-family="Courier,monospace" font-size="14.00">A Nice Little Family</text>
</g>
<g id="clust4" class="cluster">
<title>cluster_servants</title>
<polygon fill="lightgrey" stroke="lightgrey" points="630,-548 630,-732.5 831,-732.5 831,-548 630,-548"/>
<text text-anchor="middle" x="730.5" y="-715.2" font-family="Courier,monospace" font-size="14.00">Servant&#39;s Cottage</text>
</g>
<g id="clust5" class="cluster">
<title>cluster_fathers</title>
<polygon fill="lightgrey" stroke="lightgrey" points="2180,-548 2180,-732.5 2373,-732.5 2373,-548 2180,-548"/>
<text text-anchor="middle" x="2276.5" y="-715.2" font-family="Courier,monospace" font-size="14.00">Monastery Fathers</text>
</g>
<g id="clust6" class="cluster">
<title>cluster_khokhlakovs</title>
<polygon fill="lightgrey" stroke="lightgrey" points="1226,-8 1226,-300.5 1435,-300.5 1435,-8 1226,-8"/>
<text text-anchor="middle" x="1330.5" y="-283.2" font-family="Courier,monospace" font-size="14.00">Khokhlakovs &amp; Company</text>
</g>
<g id="clust7" class="cluster">
<title>cluster_mokroye</title>
<polygon fill="lightgrey" stroke="lightgrey" points="519,-332 519,-516.5 979,-516.5 979,-332 519,-332"/>
<text text-anchor="middle" x="749" y="-499.2" font-family="Courier,monospace" font-size="14.00">Mokroye</text>
</g>
<g id="clust8" class="cluster">
<title>cluster_interrogation</title>
<polygon fill="lightgrey" stroke="lightgrey" points="75,-548 75,-732.5 622,-732.5 622,-548 75,-548"/>
<text text-anchor="middle" x="348.5" y="-715.2" font-family="Courier,monospace" font-size="14.00">Interrogation</text>
</g>
<g id="clust9" class="cluster">
<title>cluster_snegiryov</title>
<polygon fill="lightgrey" stroke="lightgrey" points="1778,-548 1778,-840.5 2066,-840.5 2066,-548 1778,-548"/>
<text text-anchor="middle" x="1922" y="-823.2" font-family="Courier,monospace" font-size="14.00">Snegiryovs</text>
</g>
<g id="clust12" class="cluster">
<title>cluster_schoolboys</title>
<polygon fill="lightgrey" stroke="lightgrey" points="2074,-548 2074,-732.5 2172,-732.5 2172,-548 2074,-548"/>
<text text-anchor="middle" x="2123" y="-715.2" font-family="Courier,monospace" font-size="14.00">Schoolboys</text>
</g>
<!-- fyod -->
<g id="node1" class="node">
<title>fyod</title>
<polygon fill="white" stroke="black" points="1427.75,-808 1362.25,-808 1362.25,-772 1427.75,-772 1427.75,-808"/>
<text text-anchor="middle" x="1395" y="-784.95" font-family="Courier,monospace" font-size="14.00">Fyodor</text>
</g>
<!-- fyod_sofi -->
<!-- fyod&#45;&#45;fyod_sofi -->
<g id="edge3" class="edge">
<title>fyod&#45;&#45;fyod_sofi</title>
<path fill="none" stroke="red" stroke-width="1.5" d="M1428.07,-777C1454.57,-777 1487.33,-777 1487.33,-777 1487.33,-777 1487.33,-786.95 1487.33,-789.44"/>
</g>
<!-- grus -->
<g id="node21" class="node">
<title>grus</title>
<polygon fill="white" stroke="black" points="971.12,-376 880.88,-376 880.88,-340 971.12,-340 971.12,-376"/>
<text text-anchor="middle" x="926" y="-352.95" font-family="Courier,monospace" font-size="14.00">Grushenka</text>
</g>
<!-- fyod&#45;&#45;grus -->
<g id="edge8" class="edge">
<title>fyod&#45;&#45;grus</title>
<path fill="none" stroke="magenta" stroke-width="1.5" d="M1428.22,-783C1433.45,-783 1437.17,-783 1437.17,-783 1437.17,-783 1437.17,-354 1437.17,-354 1437.17,-354 1096.46,-354 971.36,-354"/>
</g>
<!-- stin -->
<g id="node42" class="node">
<title>stin</title>
<polygon fill="none" stroke="black" points="498.12,-484 341.88,-484 341.88,-448 498.12,-448 498.12,-484"/>
<text text-anchor="middle" x="420" y="-460.95" font-family="Courier,monospace" font-size="14.00">Stinking Lizaveta</text>
</g>
<!-- fyod&#45;&#45;stin -->
<g id="edge37" class="edge">
<title>fyod&#45;&#45;stin</title>
<path fill="none" stroke="indigo" stroke-width="1.5" d="M1393.04,-771.55C1393.04,-707.98 1393.04,-502 1393.04,-502 1393.04,-502 438.33,-502 438.33,-502 438.33,-502 438.33,-493.28 438.33,-484.42"/>
</g>
<!-- adel -->
<g id="node2" class="node">
<title>adel</title>
<polygon fill="white" stroke="black" points="1333,-808 1119,-808 1119,-772 1333,-772 1333,-808"/>
<text text-anchor="middle" x="1226" y="-784.95" font-family="Courier,monospace" font-size="14.00">Adelaida Ivanovna Miusov</text>
</g>
<!-- fyod_adel -->
<!-- adel&#45;&#45;fyod_adel -->
<g id="edge1" class="edge">
<title>adel&#45;&#45;fyod_adel</title>
<path fill="none" stroke="red" stroke-width="1.5" d="M1329.33,-771.94C1329.33,-760.56 1329.33,-748 1329.33,-748 1329.33,-748 1457,-748 1457,-748 1457,-748 1457,-784.91 1457,-789.53"/>
</g>
<!-- pyot -->
<g id="node43" class="node">
<title>pyot</title>
<polygon fill="none" stroke="black" points="462.25,-376 231.75,-376 231.75,-340 462.25,-340 462.25,-376"/>
<text text-anchor="middle" x="347" y="-352.95" font-family="Courier,monospace" font-size="14.00">Pyotr Alexandrovich Miusov</text>
</g>
<!-- adel&#45;&#45;pyot -->
<g id="edge51" class="edge">
<title>adel&#45;&#45;pyot</title>
<path fill="none" stroke="coral" stroke-width="1.5" d="M1118.78,-796C876.36,-796 307,-796 307,-796 307,-796 307,-459.16 307,-376.26"/>
</g>
<!-- sofi -->
<g id="node3" class="node">
<title>sofi</title>
<polygon fill="white" stroke="black" points="1647.75,-808 1516.25,-808 1516.25,-772 1647.75,-772 1647.75,-808"/>
<text text-anchor="middle" x="1582" y="-784.95" font-family="Courier,monospace" font-size="14.00">Sofia Ivanovna</text>
</g>
<!-- fyod_adel&#45;&#45;fyod -->
<g id="edge2" class="edge">
<title>fyod_adel&#45;&#45;fyod</title>
<path fill="none" stroke="red" stroke-width="1.5" d="M1456.82,-790C1455.15,-790 1441.88,-790 1428.06,-790"/>
</g>
<!-- dmit -->
<g id="node7" class="node">
<title>dmit</title>
<polygon fill="white" stroke="black" points="1222.75,-592 1157.25,-592 1157.25,-556 1222.75,-556 1222.75,-592"/>
<text text-anchor="middle" x="1190" y="-568.95" font-family="Courier,monospace" font-size="14.00">Dmitri</text>
</g>
<!-- fyod_adel&#45;&#45;dmit -->
<g id="edge55" class="edge">
<title>fyod_adel&#45;&#45;dmit</title>
<path fill="none" stroke="coral" stroke-width="1.5" d="M1457.17,-790C1458.82,-790 1472,-790 1472,-790 1472,-790 1472,-724 1472,-724 1472,-724 1190,-724 1190,-724 1190,-724 1190,-632.45 1190,-592.39"/>
</g>
<!-- fyod_sofi&#45;&#45;sofi -->
<g id="edge4" class="edge">
<title>fyod_sofi&#45;&#45;sofi</title>
<path fill="none" stroke="red" stroke-width="1.5" d="M1487.27,-790C1489.2,-790 1501.11,-790 1515.88,-790"/>
</g>
<!-- ivan_alyo -->
<!-- fyod_sofi&#45;&#45;ivan_alyo -->
<g id="edge56" class="edge">
<title>fyod_sofi&#45;&#45;ivan_alyo</title>
<path fill="none" stroke="coral" stroke-width="1.5" d="M1486.67,-789.31C1486.67,-780.54 1486.67,-691 1486.67,-682.63"/>
</g>
<!-- ivan -->
<g id="node8" class="node">
<title>ivan</title>
<polygon fill="white" stroke="black" points="1376,-592 1322,-592 1322,-556 1376,-556 1376,-592"/>
<text text-anchor="middle" x="1349" y="-568.95" font-family="Courier,monospace" font-size="14.00">Ivan</text>
</g>
<!-- ivan_alyo&#45;&#45;ivan -->
<g id="edge57" class="edge">
<title>ivan_alyo&#45;&#45;ivan</title>
<path fill="none" stroke="coral" stroke-width="1.5" d="M1486.66,-682C1479.75,-682 1369.12,-682 1369.12,-682 1369.12,-682 1369.12,-623.13 1369.12,-592.32"/>
</g>
<!-- alyo -->
<g id="node9" class="node">
<title>alyo</title>
<polygon fill="white" stroke="black" points="1562.75,-592 1497.25,-592 1497.25,-556 1562.75,-556 1562.75,-592"/>
<text text-anchor="middle" x="1530" y="-568.95" font-family="Courier,monospace" font-size="14.00">Alexei</text>
</g>
<!-- ivan_alyo&#45;&#45;alyo -->
<g id="edge58" class="edge">
<title>ivan_alyo&#45;&#45;alyo</title>
<path fill="none" stroke="coral" stroke-width="1.5" d="M1487.26,-682C1489.78,-682 1509.92,-682 1509.92,-682 1509.92,-682 1509.92,-623.13 1509.92,-592.32"/>
</g>
<!-- dmit&#45;&#45;grus -->
<g id="edge10" class="edge">
<title>dmit&#45;&#45;grus</title>
<path fill="none" stroke="magenta" stroke-width="1.5" d="M1196,-555.84C1196,-504.33 1196,-361 1196,-361 1196,-361 1048.44,-361 971.5,-361"/>
</g>
<!-- kate -->
<g id="node41" class="node">
<title>kate</title>
<polygon fill="none" stroke="black" points="1427.12,-484 1270.88,-484 1270.88,-448 1427.12,-448 1427.12,-484"/>
<text text-anchor="middle" x="1349" y="-460.95" font-family="Courier,monospace" font-size="14.00">Katerina Ivanovna</text>
</g>
<!-- dmit&#45;&#45;kate -->
<g id="edge9" class="edge">
<title>dmit&#45;&#45;kate</title>
<path fill="none" stroke="magenta" stroke-width="1.5" d="M1209.38,-555.68C1209.38,-524.87 1209.38,-466 1209.38,-466 1209.38,-466 1238.79,-466 1270.62,-466"/>
</g>
<!-- kuzm -->
<g id="node44" class="node">
<title>kuzm</title>
<polygon fill="none" stroke="black" points="1182.62,-484 1059.38,-484 1059.38,-448 1182.62,-448 1182.62,-484"/>
<text text-anchor="middle" x="1121" y="-460.95" font-family="Courier,monospace" font-size="14.00">Kuzma Kuzmich</text>
</g>
<!-- dmit&#45;&#45;kuzm -->
<g id="edge38" class="edge">
<title>dmit&#45;&#45;kuzm</title>
<path fill="none" stroke="indigo" stroke-width="1.5" d="M1174.17,-555.68C1174.17,-535.82 1174.17,-504.31 1174.17,-484.41"/>
</g>
<!-- smer -->
<g id="node10" class="node">
<title>smer</title>
<polygon fill="white" stroke="black" points="736.25,-592 637.75,-592 637.75,-556 736.25,-556 736.25,-592"/>
<text text-anchor="middle" x="687" y="-568.95" font-family="Courier,monospace" font-size="14.00">Smerdyakov</text>
</g>
<!-- ivan&#45;&#45;smer -->
<g id="edge25" class="edge">
<title>ivan&#45;&#45;smer</title>
<path fill="none" stroke="indigo" stroke-width="1.5" d="M1340,-555.58C1340,-546.72 1340,-538 1340,-538 1340,-538 728.17,-538 728.17,-538 728.17,-538 728.17,-546.72 728.17,-555.58"/>
</g>
<!-- liza -->
<g id="node18" class="node">
<title>liza</title>
<polygon fill="white" stroke="black" points="1427,-52 1373,-52 1373,-16 1427,-16 1427,-52"/>
<text text-anchor="middle" x="1400" y="-28.95" font-family="Courier,monospace" font-size="14.00">Liza</text>
</g>
<!-- ivan&#45;&#45;liza -->
<g id="edge12" class="edge">
<title>ivan&#45;&#45;liza</title>
<path fill="none" stroke="magenta" stroke-width="1.5" d="M1376.44,-568C1405.3,-568 1446.58,-568 1446.58,-568 1446.58,-568 1446.58,-40 1446.58,-40 1446.58,-40 1437.51,-40 1427.37,-40"/>
</g>
<!-- ivan&#45;&#45;kate -->
<g id="edge11" class="edge">
<title>ivan&#45;&#45;kate</title>
<path fill="none" stroke="magenta" stroke-width="1.5" d="M1358,-555.68C1358,-535.82 1358,-504.31 1358,-484.41"/>
</g>
<!-- alyo&#45;&#45;liza -->
<g id="edge13" class="edge">
<title>alyo&#45;&#45;liza</title>
<path fill="none" stroke="magenta" stroke-width="1.5" d="M1546.38,-555.52C1546.38,-460.14 1546.38,-28 1546.38,-28 1546.38,-28 1469.52,-28 1427.19,-28"/>
</g>
<!-- raki -->
<g id="node19" class="node">
<title>raki</title>
<polygon fill="white" stroke="black" points="1426.88,-268 1353.12,-268 1353.12,-232 1426.88,-232 1426.88,-268"/>
<text text-anchor="middle" x="1390" y="-244.95" font-family="Courier,monospace" font-size="14.00">Rakitin</text>
</g>
<!-- alyo&#45;&#45;raki -->
<g id="edge26" class="edge">
<title>alyo&#45;&#45;raki</title>
<path fill="none" stroke="indigo" stroke-width="1.5" d="M1530,-555.65C1530,-487.11 1530,-250 1530,-250 1530,-250 1468.63,-250 1427.15,-250"/>
</g>
<!-- kalg -->
<g id="node22" class="node">
<title>kalg</title>
<polygon fill="white" stroke="black" points="794,-484 712,-484 712,-448 794,-448 794,-484"/>
<text text-anchor="middle" x="753" y="-460.95" font-family="Courier,monospace" font-size="14.00">Kalganov</text>
</g>
<!-- alyo&#45;&#45;kalg -->
<g id="edge45" class="edge">
<title>alyo&#45;&#45;kalg</title>
<path fill="none" stroke="dodgerblue" stroke-width="1.5" d="M1513.62,-555.62C1513.62,-531.72 1513.62,-493 1513.62,-493 1513.62,-493 779.69,-493 779.69,-493 779.69,-493 779.69,-489.2 779.69,-484.46"/>
</g>
<!-- sneg -->
<g id="node32" class="node">
<title>sneg</title>
<polygon fill="white" stroke="black" points="1942.12,-808 1785.88,-808 1785.88,-772 1942.12,-772 1942.12,-808"/>
<text text-anchor="middle" x="1864" y="-784.95" font-family="Courier,monospace" font-size="14.00">Captain Snegiryov</text>
</g>
<!-- alyo&#45;&#45;sneg -->
<g id="edge31" class="edge">
<title>alyo&#45;&#45;sneg</title>
<path fill="none" stroke="indigo" stroke-width="1.5" d="M1563.06,-580C1632.87,-580 1788.96,-580 1788.96,-580 1788.96,-580 1788.96,-720.64 1788.96,-771.73"/>
</g>
<!-- alyo&#45;&#45;kate -->
<g id="edge35" class="edge">
<title>alyo&#45;&#45;kate</title>
<path fill="none" stroke="indigo" stroke-width="1.5" d="M1496.91,-580C1461.42,-580 1410.08,-580 1410.08,-580 1410.08,-580 1410.08,-516.54 1410.08,-484.32"/>
</g>
<!-- smer&#45;&#45;stin -->
<g id="edge53" class="edge">
<title>smer&#45;&#45;stin</title>
<path fill="none" stroke="coral" stroke-width="1.5" d="M637.51,-574C585.45,-574 511,-574 511,-574 511,-574 511,-466 511,-466 511,-466 506,-466 498.35,-466"/>
</g>
<!-- kond -->
<g id="node45" class="node">
<title>kond</title>
<polygon fill="none" stroke="black" points="202.25,-808 37.75,-808 37.75,-772 202.25,-772 202.25,-808"/>
<text text-anchor="middle" x="120" y="-784.95" font-family="Courier,monospace" font-size="14.00">Maria Kondratievna</text>
</g>
<!-- smer&#45;&#45;kond -->
<g id="edge23" class="edge">
<title>smer&#45;&#45;kond</title>
<path fill="none" stroke="indigo" stroke-width="1.5" d="M687,-592.27C687,-643.36 687,-784 687,-784 687,-784 359.7,-784 202.45,-784"/>
</g>
<!-- vvsk -->
<g id="node49" class="node">
<title>vvsk</title>
<polygon fill="none" stroke="black" points="254.12,-484 163.88,-484 163.88,-448 254.12,-448 254.12,-484"/>
<text text-anchor="middle" x="209" y="-460.95" font-family="Courier,monospace" font-size="14.00">Varvinsky</text>
</g>
<!-- smer&#45;&#45;vvsk -->
<g id="edge36" class="edge">
<title>smer&#45;&#45;vvsk</title>
<path fill="none" stroke="indigo" stroke-width="1.5" d="M660.44,-555.78C660.44,-537.17 660.44,-511 660.44,-511 660.44,-511 219.88,-511 219.88,-511 219.88,-511 219.88,-496.76 219.88,-484.3"/>
</g>
<!-- grig -->
<g id="node11" class="node">
<title>grig</title>
<polygon fill="white" stroke="black" points="822.88,-700 749.12,-700 749.12,-664 822.88,-664 822.88,-700"/>
<text text-anchor="middle" x="786" y="-676.95" font-family="Courier,monospace" font-size="14.00">Grigory</text>
</g>
<!-- grig&#45;&#45;dmit -->
<g id="edge17" class="edge">
<title>grig&#45;&#45;dmit</title>
<path fill="none" stroke="green" stroke-width="1.5" d="M823.27,-682C855.52,-682 897,-682 897,-682 897,-682 897,-574 897,-574 897,-574 1080.33,-574 1156.96,-574"/>
</g>
<!-- grig&#45;&#45;smer -->
<g id="edge20" class="edge">
<title>grig&#45;&#45;smer</title>
<path fill="none" stroke="green" stroke-width="1.5" d="M757.25,-663.68C757.25,-632.87 757.25,-574 757.25,-574 757.25,-574 748.18,-574 736.55,-574"/>
</g>
<!-- marf -->
<g id="node12" class="node">
<title>marf</title>
<polygon fill="white" stroke="black" points="822.62,-592 765.38,-592 765.38,-556 822.62,-556 822.62,-592"/>
<text text-anchor="middle" x="794" y="-568.95" font-family="Courier,monospace" font-size="14.00">Marfa</text>
</g>
<!-- grig&#45;&#45;marf -->
<g id="edge5" class="edge">
<title>grig&#45;&#45;marf</title>
<path fill="none" stroke="red" stroke-width="1.5" d="M794,-663.68C794,-643.82 794,-612.31 794,-592.41"/>
</g>
<!-- supe -->
<g id="node13" class="node">
<title>supe</title>
<polygon fill="white" stroke="black" points="2365,-700 2283,-700 2283,-664 2365,-664 2365,-700"/>
<text text-anchor="middle" x="2324" y="-676.95" font-family="Courier,monospace" font-size="14.00">Superior</text>
</g>
<!-- pais -->
<g id="node14" class="node">
<title>pais</title>
<polygon fill="white" stroke="black" points="2253.75,-592 2188.25,-592 2188.25,-556 2253.75,-556 2253.75,-592"/>
<text text-anchor="middle" x="2221" y="-568.95" font-family="Courier,monospace" font-size="14.00">Paissy</text>
</g>
<!-- fera -->
<g id="node15" class="node">
<title>fera</title>
<polygon fill="white" stroke="black" points="2365,-592 2283,-592 2283,-556 2365,-556 2365,-592"/>
<text text-anchor="middle" x="2324" y="-568.95" font-family="Courier,monospace" font-size="14.00">Ferapont</text>
</g>
<!-- zosi -->
<g id="node16" class="node">
<title>zosi</title>
<polygon fill="white" stroke="black" points="2253.75,-700 2188.25,-700 2188.25,-664 2253.75,-664 2253.75,-700"/>
<text text-anchor="middle" x="2221" y="-676.95" font-family="Courier,monospace" font-size="14.00">Zosima</text>
</g>
<!-- zosi&#45;&#45;alyo -->
<g id="edge21" class="edge">
<title>zosi&#45;&#45;alyo</title>
<path fill="none" stroke="green" stroke-width="1.5" d="M2210.08,-663.62C2210.08,-644.09 2210.08,-616 2210.08,-616 2210.08,-616 1539.5,-616 1539.5,-616 1539.5,-616 1539.5,-603.44 1539.5,-592.06"/>
</g>
<!-- zosi&#45;&#45;pais -->
<g id="edge48" class="edge">
<title>zosi&#45;&#45;pais</title>
<path fill="none" stroke="dodgerblue" stroke-width="1.5" d="M2231.92,-663.68C2231.92,-643.82 2231.92,-612.31 2231.92,-592.41"/>
</g>
<!-- zosi&#45;&#45;fera -->
<g id="edge30" class="edge">
<title>zosi&#45;&#45;fera</title>
<path fill="none" stroke="indigo" stroke-width="1.5" d="M2254.16,-682C2262.12,-682 2268.38,-682 2268.38,-682 2268.38,-682 2268.38,-574 2268.38,-574 2268.38,-574 2274.51,-574 2282.7,-574"/>
</g>
<!-- khok -->
<g id="node17" class="node">
<title>khok</title>
<polygon fill="white" stroke="black" points="1427.12,-160 1270.88,-160 1270.88,-124 1427.12,-124 1427.12,-160"/>
<text text-anchor="middle" x="1349" y="-136.95" font-family="Courier,monospace" font-size="14.00">Madame Khokhlakov</text>
</g>
<!-- khok&#45;&#45;liza -->
<g id="edge54" class="edge">
<title>khok&#45;&#45;liza</title>
<path fill="none" stroke="coral" stroke-width="1.5" d="M1400,-123.68C1400,-103.82 1400,-72.31 1400,-52.41"/>
</g>
<!-- raki&#45;&#45;khok -->
<g id="edge14" class="edge">
<title>raki&#45;&#45;khok</title>
<path fill="none" stroke="magenta" stroke-width="1.5" d="M1390,-231.68C1390,-211.82 1390,-180.31 1390,-160.41"/>
</g>
<!-- perk -->
<g id="node20" class="node">
<title>perk</title>
<polygon fill="white" stroke="black" points="1324.12,-268 1233.88,-268 1233.88,-232 1324.12,-232 1324.12,-268"/>
<text text-anchor="middle" x="1279" y="-244.95" font-family="Courier,monospace" font-size="14.00">Perkhotin</text>
</g>
<!-- perk&#45;&#45;khok -->
<g id="edge15" class="edge">
<title>perk&#45;&#45;khok</title>
<path fill="none" stroke="magenta" stroke-width="1.5" d="M1297.5,-231.68C1297.5,-211.82 1297.5,-180.31 1297.5,-160.41"/>
</g>
<!-- grus&#45;&#45;raki -->
<g id="edge50" class="edge">
<title>grus&#45;&#45;raki</title>
<path fill="none" stroke="coral" stroke-width="1.5" d="M971.34,-347C1088.09,-347 1390,-347 1390,-347 1390,-347 1390,-296.34 1390,-268.24"/>
</g>
<!-- feny -->
<g id="node50" class="node">
<title>feny</title>
<polygon fill="none" stroke="black" points="954.62,-268 897.38,-268 897.38,-232 954.62,-232 954.62,-268"/>
<text text-anchor="middle" x="926" y="-244.95" font-family="Courier,monospace" font-size="14.00">Fenya</text>
</g>
<!-- grus&#45;&#45;feny -->
<g id="edge32" class="edge">
<title>grus&#45;&#45;feny</title>
<path fill="none" stroke="indigo" stroke-width="1.5" d="M926,-339.68C926,-319.82 926,-288.31 926,-268.41"/>
</g>
<!-- maxi -->
<g id="node23" class="node">
<title>maxi</title>
<polygon fill="white" stroke="black" points="690.88,-376 617.12,-376 617.12,-340 690.88,-340 690.88,-376"/>
<text text-anchor="middle" x="654" y="-352.95" font-family="Courier,monospace" font-size="14.00">Maximov</text>
</g>
<!-- kalg&#45;&#45;maxi -->
<g id="edge49" class="edge">
<title>kalg&#45;&#45;maxi</title>
<path fill="none" stroke="dodgerblue" stroke-width="1.5" d="M711.58,-466C698.32,-466 687,-466 687,-466 687,-466 687,-407.13 687,-376.32"/>
</g>
<!-- kalg&#45;&#45;pyot -->
<g id="edge52" class="edge">
<title>kalg&#45;&#45;pyot</title>
<path fill="none" stroke="coral" stroke-width="1.5" d="M716.12,-447.72C716.12,-432.05 716.12,-412 716.12,-412 716.12,-412 402.06,-412 402.06,-412 402.06,-412 402.06,-391.95 402.06,-376.28"/>
</g>
<!-- trif -->
<g id="node24" class="node">
<title>trif</title>
<polygon fill="white" stroke="black" points="683.12,-484 526.88,-484 526.88,-448 683.12,-448 683.12,-484"/>
<text text-anchor="middle" x="605" y="-460.95" font-family="Courier,monospace" font-size="14.00">Trifon Borisovich</text>
</g>
<!-- panm -->
<g id="node25" class="node">
<title>panm</title>
<polygon fill="white" stroke="black" points="971,-484 823,-484 823,-448 971,-448 971,-484"/>
<text text-anchor="middle" x="897" y="-460.95" font-family="Courier,monospace" font-size="14.00">Pan Mussyalovich</text>
</g>
<!-- panm&#45;&#45;grus -->
<g id="edge16" class="edge">
<title>panm&#45;&#45;grus</title>
<path fill="none" stroke="magenta" stroke-width="1.5" d="M925.94,-447.68C925.94,-427.82 925.94,-396.31 925.94,-376.41"/>
</g>
<!-- panv -->
<g id="node26" class="node">
<title>panv</title>
<polygon fill="white" stroke="black" points="851.75,-376 720.25,-376 720.25,-340 851.75,-340 851.75,-376"/>
<text text-anchor="middle" x="786" y="-352.95" font-family="Courier,monospace" font-size="14.00">Pan Vrublevsky</text>
</g>
<!-- panm&#45;&#45;panv -->
<g id="edge47" class="edge">
<title>panm&#45;&#45;panv</title>
<path fill="none" stroke="dodgerblue" stroke-width="1.5" d="M837.38,-447.68C837.38,-427.82 837.38,-396.31 837.38,-376.41"/>
</g>
<!-- shme -->
<g id="node27" class="node">
<title>shme</title>
<polygon fill="white" stroke="black" points="614.12,-700 523.88,-700 523.88,-664 614.12,-664 614.12,-700"/>
<text text-anchor="middle" x="569" y="-676.95" font-family="Courier,monospace" font-size="14.00">Shmertsov</text>
</g>
<!-- shme&#45;&#45;trif -->
<g id="edge29" class="edge">
<title>shme&#45;&#45;trif</title>
<path fill="none" stroke="indigo" stroke-width="1.5" d="M570.5,-663.58C570.5,-622.78 570.5,-525.13 570.5,-484.37"/>
</g>
<!-- maka -->
<g id="node28" class="node">
<title>maka</title>
<polygon fill="white" stroke="black" points="156.88,-700 83.12,-700 83.12,-664 156.88,-664 156.88,-700"/>
<text text-anchor="middle" x="120" y="-676.95" font-family="Courier,monospace" font-size="14.00">Makarov</text>
</g>
<!-- maka&#45;&#45;perk -->
<g id="edge40" class="edge">
<title>maka&#45;&#45;perk</title>
<path fill="none" stroke="indigo" stroke-width="1.5" d="M120,-663.73C120,-621.36 120,-520 120,-520 120,-520 1252.38,-520 1252.38,-520 1252.38,-520 1252.38,-328.67 1252.38,-268.13"/>
</g>
<!-- maka&#45;&#45;vvsk -->
<g id="edge39" class="edge">
<title>maka&#45;&#45;vvsk</title>
<path fill="none" stroke="indigo" stroke-width="1.5" d="M157.13,-682C166.89,-682 174.75,-682 174.75,-682 174.75,-682 174.75,-536.65 174.75,-484.42"/>
</g>
<!-- fety -->
<g id="node29" class="node">
<title>fety</title>
<polygon fill="white" stroke="black" points="292.38,-700 185.62,-700 185.62,-664 292.38,-664 292.38,-700"/>
<text text-anchor="middle" x="239" y="-676.95" font-family="Courier,monospace" font-size="14.00">Fetyukovich</text>
</g>
<!-- nely -->
<g id="node30" class="node">
<title>nely</title>
<polygon fill="white" stroke="black" points="493,-592 411,-592 411,-556 493,-556 493,-592"/>
<text text-anchor="middle" x="452" y="-568.95" font-family="Courier,monospace" font-size="14.00">Nelyudov</text>
</g>
<!-- nely&#45;&#45;dmit -->
<g id="edge34" class="edge">
<title>nely&#45;&#45;dmit</title>
<path fill="none" stroke="indigo" stroke-width="1.5" d="M465.67,-555.54C465.67,-550.8 465.67,-547 465.67,-547 465.67,-547 1165.71,-547 1165.71,-547 1165.71,-547 1165.71,-550.8 1165.71,-555.54"/>
</g>
<!-- ippo -->
<g id="node31" class="node">
<title>ippo</title>
<polygon fill="white" stroke="black" points="494.38,-700 321.62,-700 321.62,-664 494.38,-664 494.38,-700"/>
<text text-anchor="middle" x="408" y="-676.95" font-family="Courier,monospace" font-size="14.00">Ippolit Kirillovich</text>
</g>
<!-- ippo&#45;&#45;dmit -->
<g id="edge33" class="edge">
<title>ippo&#45;&#45;dmit</title>
<path fill="none" stroke="indigo" stroke-width="1.5" d="M465.67,-663.94C465.67,-652.56 465.67,-640 465.67,-640 465.67,-640 1173.62,-640 1173.62,-640 1173.62,-640 1173.62,-611.91 1173.62,-592.38"/>
</g>
<!-- ippo&#45;&#45;nely -->
<g id="edge46" class="edge">
<title>ippo&#45;&#45;nely</title>
<path fill="none" stroke="dodgerblue" stroke-width="1.5" d="M438.33,-663.68C438.33,-643.82 438.33,-612.31 438.33,-592.41"/>
</g>
<!-- sneg_arin -->
<!-- sneg&#45;&#45;sneg_arin -->
<g id="edge6" class="edge">
<title>sneg&#45;&#45;sneg_arin</title>
<path fill="none" stroke="red" stroke-width="1.5" d="M1942.61,-790C1957.77,-790 1969.46,-790 1970.86,-790"/>
</g>
<!-- arin -->
<g id="node33" class="node">
<title>arin</title>
<polygon fill="white" stroke="black" points="2057.62,-808 2000.38,-808 2000.38,-772 2057.62,-772 2057.62,-808"/>
<text text-anchor="middle" x="2029" y="-784.95" font-family="Courier,monospace" font-size="14.00">Arina</text>
</g>
<!-- sneg_arin&#45;&#45;arin -->
<g id="edge7" class="edge">
<title>sneg_arin&#45;&#45;arin</title>
<path fill="none" stroke="red" stroke-width="1.5" d="M1971.17,-790C1972.81,-790 1986.43,-790 2000.04,-790"/>
</g>
<!-- sneg_child -->
<!-- sneg_arin&#45;&#45;sneg_child -->
<g id="edge59" class="edge">
<title>sneg_arin&#45;&#45;sneg_child</title>
<path fill="none" stroke="coral" stroke-width="1.5" d="M1971,-789.31C1971,-780.11 1971,-682 1971,-682 1971,-682 1950.79,-682 1948.26,-682"/>
</g>
<!-- ilyu -->
<g id="node36" class="node">
<title>ilyu</title>
<polygon fill="white" stroke="black" points="2054.88,-592 1981.12,-592 1981.12,-556 2054.88,-556 2054.88,-592"/>
<text text-anchor="middle" x="2018" y="-568.95" font-family="Courier,monospace" font-size="14.00">Ilyusha</text>
</g>
<!-- sneg_child&#45;&#45;ilyu -->
<g id="edge60" class="edge">
<title>sneg_child&#45;&#45;ilyu</title>
<path fill="none" stroke="coral" stroke-width="1.5" d="M1948,-682.39C1948,-684.11 1948,-691 1948,-691 1948,-691 1990.75,-691 1990.75,-691 1990.75,-691 1990.75,-625.19 1990.75,-592.28"/>
</g>
<!-- nina -->
<g id="node37" class="node">
<title>nina</title>
<polygon fill="white" stroke="black" points="1952,-592 1898,-592 1898,-556 1952,-556 1952,-592"/>
<text text-anchor="middle" x="1925" y="-568.95" font-family="Courier,monospace" font-size="14.00">Nina</text>
</g>
<!-- sneg_child&#45;&#45;nina -->
<g id="edge61" class="edge">
<title>sneg_child&#45;&#45;nina</title>
<path fill="none" stroke="coral" stroke-width="1.5" d="M1948,-681.31C1948,-674.63 1948,-621.01 1948,-592.18"/>
</g>
<!-- varv -->
<g id="node38" class="node">
<title>varv</title>
<polygon fill="white" stroke="black" points="1868.88,-592 1795.12,-592 1795.12,-556 1868.88,-556 1868.88,-592"/>
<text text-anchor="middle" x="1832" y="-568.95" font-family="Courier,monospace" font-size="14.00">Varvara</text>
</g>
<!-- sneg_child&#45;&#45;varv -->
<g id="edge62" class="edge">
<title>sneg_child&#45;&#45;varv</title>
<path fill="none" stroke="coral" stroke-width="1.5" d="M1947.67,-682C1940.86,-682 1832,-682 1832,-682 1832,-682 1832,-623.13 1832,-592.32"/>
</g>
<!-- ilyu&#45;&#45;smer -->
<g id="edge24" class="edge">
<title>ilyu&#45;&#45;smer</title>
<path fill="none" stroke="indigo" stroke-width="1.5" d="M2018,-555.7C2018,-543.24 2018,-529 2018,-529 2018,-529 720.08,-529 720.08,-529 720.08,-529 720.08,-543.24 720.08,-555.7"/>
</g>
<!-- koly -->
<g id="node39" class="node">
<title>koly</title>
<polygon fill="white" stroke="black" points="2139.62,-700 2082.38,-700 2082.38,-664 2139.62,-664 2139.62,-700"/>
<text text-anchor="middle" x="2111" y="-676.95" font-family="Courier,monospace" font-size="14.00">Kolya</text>
</g>
<!-- koly&#45;&#45;alyo -->
<g id="edge44" class="edge">
<title>koly&#45;&#45;alyo</title>
<path fill="none" stroke="dodgerblue" stroke-width="1.5" d="M2082.13,-675C2003.62,-675 1792.04,-675 1792.04,-675 1792.04,-675 1792.04,-568 1792.04,-568 1792.04,-568 1633.7,-568 1563.19,-568"/>
</g>
<!-- koly&#45;&#45;ilyu -->
<g id="edge42" class="edge">
<title>koly&#45;&#45;ilyu</title>
<path fill="none" stroke="dodgerblue" stroke-width="1.5" d="M2082.31,-669C2058.19,-669 2027.62,-669 2027.62,-669 2027.62,-669 2027.62,-619.92 2027.62,-592.32"/>
</g>
<!-- smur -->
<g id="node40" class="node">
<title>smur</title>
<polygon fill="white" stroke="black" points="2149.75,-592 2084.25,-592 2084.25,-556 2149.75,-556 2149.75,-592"/>
<text text-anchor="middle" x="2117" y="-568.95" font-family="Courier,monospace" font-size="14.00">Smurov</text>
</g>
<!-- koly&#45;&#45;smur -->
<g id="edge43" class="edge">
<title>koly&#45;&#45;smur</title>
<path fill="none" stroke="dodgerblue" stroke-width="1.5" d="M2111.94,-663.68C2111.94,-643.82 2111.94,-612.31 2111.94,-592.41"/>
</g>
<!-- kuzm&#45;&#45;grus -->
<g id="edge22" class="edge">
<title>kuzm&#45;&#45;grus</title>
<path fill="none" stroke="green" stroke-width="1.5" d="M1121,-447.57C1121,-419.18 1121,-368 1121,-368 1121,-368 1028.83,-368 971.23,-368"/>
</g>
<!-- kond&#45;&#45;maka -->
<g id="edge41" class="edge">
<title>kond&#45;&#45;maka</title>
<path fill="none" stroke="indigo" stroke-width="1.5" d="M120,-771.68C120,-751.82 120,-720.31 120,-700.41"/>
</g>
<!-- foma -->
<g id="node46" class="node">
<title>foma</title>
<polygon fill="none" stroke="black" points="54,-700 0,-700 0,-664 54,-664 54,-700"/>
<text text-anchor="middle" x="27" y="-676.95" font-family="Courier,monospace" font-size="14.00">Foma</text>
</g>
<!-- kond&#45;&#45;foma -->
<g id="edge27" class="edge">
<title>kond&#45;&#45;foma</title>
<path fill="none" stroke="indigo" stroke-width="1.5" d="M45.88,-771.68C45.88,-751.82 45.88,-720.31 45.88,-700.41"/>
</g>
<!-- yefi -->
<g id="node47" class="node">
<title>yefi</title>
<polygon fill="none" stroke="black" points="1102.88,-700 1029.12,-700 1029.12,-664 1102.88,-664 1102.88,-700"/>
<text text-anchor="middle" x="1066" y="-676.95" font-family="Courier,monospace" font-size="14.00">Polenov</text>
</g>
<!-- yefi&#45;&#45;ivan -->
<g id="edge18" class="edge">
<title>yefi&#45;&#45;ivan</title>
<path fill="none" stroke="green" stroke-width="1.5" d="M1103.2,-668C1175,-668 1325.67,-668 1325.67,-668 1325.67,-668 1325.67,-619.44 1325.67,-592.12"/>
</g>
<!-- yefi&#45;&#45;alyo -->
<g id="edge19" class="edge">
<title>yefi&#45;&#45;alyo</title>
<path fill="none" stroke="green" stroke-width="1.5" d="M1103.31,-672C1209.13,-672 1503.58,-672 1503.58,-672 1503.58,-672 1503.58,-620.82 1503.58,-592.43"/>
</g>
<!-- herz -->
<g id="node48" class="node">
<title>herz</title>
<polygon fill="none" stroke="black" points="1770.38,-700 1663.62,-700 1663.62,-664 1770.38,-664 1770.38,-700"/>
<text text-anchor="middle" x="1717" y="-676.95" font-family="Courier,monospace" font-size="14.00">Herzenstube</text>
</g>
<!-- herz&#45;&#45;dmit -->
<g id="edge28" class="edge">
<title>herz&#45;&#45;dmit</title>
<path fill="none" stroke="indigo" stroke-width="1.5" d="M1663.32,-676C1532.22,-676 1206.38,-676 1206.38,-676 1206.38,-676 1206.38,-621.57 1206.38,-592.24"/>
</g>
</g>
</svg>
