<?xml version="1.0" encoding="UTF-8" standalone="no"?>
<!DOCTYPE svg PUBLIC "-//W3C//DTD SVG 1.1//EN"
 "http://www.w3.org/Graphics/SVG/1.1/DTD/svg11.dtd">
<!-- Generated by graphviz version 2.43.0 (0)
 -->
<!-- Title: %3 Pages: 1 -->
<svg width="2403pt" height="855pt"
 viewBox="0.00 0.00 2403.00 855.00" xmlns="http://www.w3.org/2000/svg" xmlns:xlink="http://www.w3.org/1999/xlink">
<g id="graph0" class="graph" transform="scale(1 1) rotate(0) translate(4 851)">
<title>%3</title>
<polygon fill="white" stroke="transparent" points="-4,4 -4,-851 2399,-851 2399,4 -4,4"/>
<g id="clust1" class="cluster">
<title>cluster_karamazov</title>
<polygon fill="lightgrey" stroke="lightgrey" points="1115,-548 1115,-839 1664,-839 1664,-548 1115,-548"/>
<text text-anchor="middle" x="1389.5" y="-823.8" font-family="Courier,monospace" font-size="14.00">A Nice Little Family</text>
</g>
<g id="clust4" class="cluster">
<title>cluster_servants</title>
<polygon fill="lightgrey" stroke="lightgrey" points="632,-548 632,-731 835,-731 835,-548 632,-548"/>
<text text-anchor="middle" x="733.5" y="-715.8" font-family="Courier,monospace" font-size="14.00">Servant&#39;s Cottage</text>
</g>
<g id="clust5" class="cluster">
<title>cluster_fathers</title>
<polygon fill="lightgrey" stroke="lightgrey" points="2192,-548 2192,-731 2387,-731 2387,-548 2192,-548"/>
<text text-anchor="middle" x="2289.5" y="-715.8" font-family="Courier,monospace" font-size="14.00">Monastery Fathers</text>
</g>
<g id="clust6" class="cluster">
<title>cluster_khokhlakovs</title>
<polygon fill="lightgrey" stroke="lightgrey" points="1232,-8 1232,-299 1443,-299 1443,-8 1232,-8"/>
<text text-anchor="middle" x="1337.5" y="-283.8" font-family="Courier,monospace" font-size="14.00">Khokhlakovs &amp; Company</text>
</g>
<g id="clust7" class="cluster">
<title>cluster_mokroye</title>
<polygon fill="lightgrey" stroke="lightgrey" points="522,-332 522,-515 985,-515 985,-332 522,-332"/>
<text text-anchor="middle" x="753.5" y="-499.8" font-family="Courier,monospace" font-size="14.00">Mokroye</text>
</g>
<g id="clust8" class="cluster">
<title>cluster_interrogation</title>
<polygon fill="lightgrey" stroke="lightgrey" points="75,-548 75,-731 624,-731 624,-548 75,-548"/>
<text text-anchor="middle" x="349.5" y="-715.8" font-family="Courier,monospace" font-size="14.00">Investigation Team</text>
</g>
<g id="clust9" class="cluster">
<title>cluster_snegiryov</title>
<polygon fill="lightgrey" stroke="lightgrey" points="1786,-548 1786,-839 2077,-839 2077,-548 1786,-548"/>
<text text-anchor="middle" x="1931.5" y="-823.8" font-family="Courier,monospace" font-size="14.00">Snegiryovs</text>
</g>
<g id="clust12" class="cluster">
<title>cluster_schoolboys</title>
<polygon fill="lightgrey" stroke="lightgrey" points="2085,-548 2085,-731 2184,-731 2184,-548 2085,-548"/>
<text text-anchor="middle" x="2134.5" y="-715.8" font-family="Courier,monospace" font-size="14.00">Schoolboys</text>
</g>
<!-- fyod -->
<g id="node1" class="node">
<title>fyod</title>
<polygon fill="white" stroke="black" points="1434,-808 1368,-808 1368,-772 1434,-772 1434,-808"/>
<text text-anchor="middle" x="1401" y="-786.3" font-family="Courier,monospace" font-size="14.00">Fyodor</text>
</g>
<!-- fyod_sofi -->
<!-- fyod&#45;&#45;fyod_sofi -->
<g id="edge3" class="edge">
<title>fyod&#45;&#45;fyod_sofi</title>
<path fill="none" stroke="red" stroke-width="1.5" d="M1434.17,-783C1461,-783 1494.33,-783 1494.33,-783 1494.33,-783 1494.33,-787.62 1494.33,-789.35"/>
</g>
<!-- grus -->
<g id="node21" class="node">
<title>grus</title>
<polygon fill="white" stroke="black" points="976.5,-376 885.5,-376 885.5,-340 976.5,-340 976.5,-376"/>
<text text-anchor="middle" x="931" y="-354.3" font-family="Courier,monospace" font-size="14.00">Grushenka</text>
</g>
<!-- fyod&#45;&#45;grus -->
<g id="edge8" class="edge">
<title>fyod&#45;&#45;grus</title>
<path fill="none" stroke="magenta" stroke-width="1.5" d="M1434.28,-777C1440.1,-777 1444.33,-777 1444.33,-777 1444.33,-777 1444.33,-354 1444.33,-354 1444.33,-354 1102.19,-354 976.55,-354"/>
</g>
<!-- stin -->
<g id="node42" class="node">
<title>stin</title>
<polygon fill="none" stroke="black" points="501.5,-484 344.5,-484 344.5,-448 501.5,-448 501.5,-484"/>
<text text-anchor="middle" x="423" y="-462.3" font-family="Courier,monospace" font-size="14.00">Stinking Lizaveta</text>
</g>
<!-- fyod&#45;&#45;stin -->
<g id="edge37" class="edge">
<title>fyod&#45;&#45;stin</title>
<path fill="none" stroke="indigo" stroke-width="1.5" d="M1400,-771.67C1400,-708.55 1400,-504 1400,-504 1400,-504 439.17,-504 439.17,-504 439.17,-504 439.17,-493.9 439.17,-484.11"/>
</g>
<!-- adel -->
<g id="node2" class="node">
<title>adel</title>
<polygon fill="white" stroke="black" points="1338.5,-808 1123.5,-808 1123.5,-772 1338.5,-772 1338.5,-808"/>
<text text-anchor="middle" x="1231" y="-786.3" font-family="Courier,monospace" font-size="14.00">Adelaida Ivanovna Miusov</text>
</g>
<!-- fyod_adel -->
<!-- adel&#45;&#45;fyod_adel -->
<g id="edge1" class="edge">
<title>adel&#45;&#45;fyod_adel</title>
<path fill="none" stroke="red" stroke-width="1.5" d="M1335.33,-771.72C1335.33,-756.05 1335.33,-736 1335.33,-736 1335.33,-736 1464,-736 1464,-736 1464,-736 1464,-783.46 1464,-789.39"/>
</g>
<!-- pyot -->
<g id="node43" class="node">
<title>pyot</title>
<polygon fill="none" stroke="black" points="464.5,-376 233.5,-376 233.5,-340 464.5,-340 464.5,-376"/>
<text text-anchor="middle" x="349" y="-354.3" font-family="Courier,monospace" font-size="14.00">Pyotr Alexandrovich Miusov</text>
</g>
<!-- adel&#45;&#45;pyot -->
<g id="edge51" class="edge">
<title>adel&#45;&#45;pyot</title>
<path fill="none" stroke="coral" stroke-width="1.5" d="M1123.31,-796C879.84,-796 308,-796 308,-796 308,-796 308,-459.16 308,-376.26"/>
</g>
<!-- sofi -->
<g id="node3" class="node">
<title>sofi</title>
<polygon fill="white" stroke="black" points="1656,-808 1524,-808 1524,-772 1656,-772 1656,-808"/>
<text text-anchor="middle" x="1590" y="-786.3" font-family="Courier,monospace" font-size="14.00">Sofia Ivanovna</text>
</g>
<!-- fyod_adel&#45;&#45;fyod -->
<g id="edge2" class="edge">
<title>fyod_adel&#45;&#45;fyod</title>
<path fill="none" stroke="red" stroke-width="1.5" d="M1463.29,-790C1460.18,-790 1447.3,-790 1434.05,-790"/>
</g>
<!-- dmit -->
<g id="node7" class="node">
<title>dmit</title>
<polygon fill="white" stroke="black" points="1228,-592 1162,-592 1162,-556 1228,-556 1228,-592"/>
<text text-anchor="middle" x="1195" y="-570.3" font-family="Courier,monospace" font-size="14.00">Dmitri</text>
</g>
<!-- fyod_adel&#45;&#45;dmit -->
<g id="edge55" class="edge">
<title>fyod_adel&#45;&#45;dmit</title>
<path fill="none" stroke="coral" stroke-width="1.5" d="M1464.64,-790C1467.52,-790 1479,-790 1479,-790 1479,-790 1479,-691 1479,-691 1479,-691 1195,-691 1195,-691 1195,-691 1195,-624.84 1195,-592.02"/>
</g>
<!-- fyod_sofi&#45;&#45;sofi -->
<g id="edge4" class="edge">
<title>fyod_sofi&#45;&#45;sofi</title>
<path fill="none" stroke="red" stroke-width="1.5" d="M1494.61,-790C1497.39,-790 1509.3,-790 1523.81,-790"/>
</g>
<!-- ivan_alyo -->
<!-- fyod_sofi&#45;&#45;ivan_alyo -->
<g id="edge56" class="edge">
<title>fyod_sofi&#45;&#45;ivan_alyo</title>
<path fill="none" stroke="coral" stroke-width="1.5" d="M1493.67,-789.31C1493.67,-780.54 1493.67,-691 1493.67,-682.63"/>
</g>
<!-- ivan -->
<g id="node8" class="node">
<title>ivan</title>
<polygon fill="white" stroke="black" points="1383,-592 1329,-592 1329,-556 1383,-556 1383,-592"/>
<text text-anchor="middle" x="1356" y="-570.3" font-family="Courier,monospace" font-size="14.00">Ivan</text>
</g>
<!-- ivan_alyo&#45;&#45;ivan -->
<g id="edge57" class="edge">
<title>ivan_alyo&#45;&#45;ivan</title>
<path fill="none" stroke="coral" stroke-width="1.5" d="M1493.24,-682C1483.15,-682 1375.5,-682 1375.5,-682 1375.5,-682 1375.5,-623.13 1375.5,-592.32"/>
</g>
<!-- alyo -->
<g id="node9" class="node">
<title>alyo</title>
<polygon fill="white" stroke="black" points="1571,-592 1505,-592 1505,-556 1571,-556 1571,-592"/>
<text text-anchor="middle" x="1538" y="-570.3" font-family="Courier,monospace" font-size="14.00">Alexei</text>
</g>
<!-- ivan_alyo&#45;&#45;alyo -->
<g id="edge58" class="edge">
<title>ivan_alyo&#45;&#45;alyo</title>
<path fill="none" stroke="coral" stroke-width="1.5" d="M1494.59,-682C1498.23,-682 1517.67,-682 1517.67,-682 1517.67,-682 1517.67,-623.13 1517.67,-592.32"/>
</g>
<!-- dmit&#45;&#45;grus -->
<g id="edge10" class="edge">
<title>dmit&#45;&#45;grus</title>
<path fill="none" stroke="magenta" stroke-width="1.5" d="M1202,-555.84C1202,-504.33 1202,-361 1202,-361 1202,-361 1053.9,-361 976.67,-361"/>
</g>
<!-- kate -->
<g id="node41" class="node">
<title>kate</title>
<polygon fill="none" stroke="black" points="1434.5,-484 1277.5,-484 1277.5,-448 1434.5,-448 1434.5,-484"/>
<text text-anchor="middle" x="1356" y="-462.3" font-family="Courier,monospace" font-size="14.00">Katerina Ivanovna</text>
</g>
<!-- dmit&#45;&#45;kate -->
<g id="edge9" class="edge">
<title>dmit&#45;&#45;kate</title>
<path fill="none" stroke="magenta" stroke-width="1.5" d="M1215,-555.68C1215,-524.87 1215,-466 1215,-466 1215,-466 1244.96,-466 1277.26,-466"/>
</g>
<!-- kuzm -->
<g id="node44" class="node">
<title>kuzm</title>
<polygon fill="none" stroke="black" points="1189,-484 1065,-484 1065,-448 1189,-448 1189,-484"/>
<text text-anchor="middle" x="1127" y="-462.3" font-family="Courier,monospace" font-size="14.00">Kuzma Kuzmich</text>
</g>
<!-- dmit&#45;&#45;kuzm -->
<g id="edge38" class="edge">
<title>dmit&#45;&#45;kuzm</title>
<path fill="none" stroke="indigo" stroke-width="1.5" d="M1180,-555.68C1180,-535.7 1180,-503.92 1180,-484.05"/>
</g>
<!-- smer -->
<g id="node10" class="node">
<title>smer</title>
<polygon fill="white" stroke="black" points="739.5,-592 640.5,-592 640.5,-556 739.5,-556 739.5,-592"/>
<text text-anchor="middle" x="690" y="-570.3" font-family="Courier,monospace" font-size="14.00">Smerdyakov</text>
</g>
<!-- ivan&#45;&#45;smer -->
<g id="edge25" class="edge">
<title>ivan&#45;&#45;smer</title>
<path fill="none" stroke="indigo" stroke-width="1.5" d="M1347,-555.87C1347,-545.69 1347,-535 1347,-535 1347,-535 731.83,-535 731.83,-535 731.83,-535 731.83,-545.69 731.83,-555.87"/>
</g>
<!-- liza -->
<g id="node18" class="node">
<title>liza</title>
<polygon fill="white" stroke="black" points="1435,-52 1381,-52 1381,-16 1435,-16 1435,-52"/>
<text text-anchor="middle" x="1408" y="-30.3" font-family="Courier,monospace" font-size="14.00">Liza</text>
</g>
<!-- ivan&#45;&#45;liza -->
<g id="edge12" class="edge">
<title>ivan&#45;&#45;liza</title>
<path fill="none" stroke="magenta" stroke-width="1.5" d="M1383.21,-568C1412.1,-568 1453.67,-568 1453.67,-568 1453.67,-568 1453.67,-40 1453.67,-40 1453.67,-40 1444.93,-40 1435.09,-40"/>
</g>
<!-- ivan&#45;&#45;kate -->
<g id="edge11" class="edge">
<title>ivan&#45;&#45;kate</title>
<path fill="none" stroke="magenta" stroke-width="1.5" d="M1365,-555.68C1365,-535.7 1365,-503.92 1365,-484.05"/>
</g>
<!-- alyo&#45;&#45;liza -->
<g id="edge13" class="edge">
<title>alyo&#45;&#45;liza</title>
<path fill="none" stroke="magenta" stroke-width="1.5" d="M1554.5,-555.83C1554.5,-461.09 1554.5,-28 1554.5,-28 1554.5,-28 1477.58,-28 1435.21,-28"/>
</g>
<!-- raki -->
<g id="node19" class="node">
<title>raki</title>
<polygon fill="white" stroke="black" points="1435,-268 1361,-268 1361,-232 1435,-232 1435,-268"/>
<text text-anchor="middle" x="1398" y="-246.3" font-family="Courier,monospace" font-size="14.00">Rakitin</text>
</g>
<!-- alyo&#45;&#45;raki -->
<g id="edge26" class="edge">
<title>alyo&#45;&#45;raki</title>
<path fill="none" stroke="indigo" stroke-width="1.5" d="M1538,-555.65C1538,-487.11 1538,-250 1538,-250 1538,-250 1476.63,-250 1435.15,-250"/>
</g>
<!-- kalg -->
<g id="node22" class="node">
<title>kalg</title>
<polygon fill="white" stroke="black" points="799.5,-484 716.5,-484 716.5,-448 799.5,-448 799.5,-484"/>
<text text-anchor="middle" x="758" y="-462.3" font-family="Courier,monospace" font-size="14.00">Kalganov</text>
</g>
<!-- alyo&#45;&#45;kalg -->
<g id="edge45" class="edge">
<title>alyo&#45;&#45;kalg</title>
<path fill="none" stroke="dodgerblue" stroke-width="1.5" d="M1521.5,-555.85C1521.5,-532.24 1521.5,-494 1521.5,-494 1521.5,-494 784.25,-494 784.25,-494 784.25,-494 784.25,-489.55 784.25,-484.21"/>
</g>
<!-- sneg -->
<g id="node32" class="node">
<title>sneg</title>
<polygon fill="white" stroke="black" points="1951.5,-808 1794.5,-808 1794.5,-772 1951.5,-772 1951.5,-808"/>
<text text-anchor="middle" x="1873" y="-786.3" font-family="Courier,monospace" font-size="14.00">Captain Snegiryov</text>
</g>
<!-- alyo&#45;&#45;sneg -->
<g id="edge31" class="edge">
<title>alyo&#45;&#45;sneg</title>
<path fill="none" stroke="indigo" stroke-width="1.5" d="M1571.24,-580C1641.42,-580 1798.33,-580 1798.33,-580 1798.33,-580 1798.33,-720.64 1798.33,-771.73"/>
</g>
<!-- alyo&#45;&#45;kate -->
<g id="edge35" class="edge">
<title>alyo&#45;&#45;kate</title>
<path fill="none" stroke="indigo" stroke-width="1.5" d="M1504.94,-580C1469.11,-580 1417,-580 1417,-580 1417,-580 1417,-516.21 1417,-484.06"/>
</g>
<!-- smer&#45;&#45;stin -->
<g id="edge53" class="edge">
<title>smer&#45;&#45;stin</title>
<path fill="none" stroke="coral" stroke-width="1.5" d="M640.22,-574C587.87,-574 513,-574 513,-574 513,-574 513,-466 513,-466 513,-466 508.54,-466 501.6,-466"/>
</g>
<!-- kond -->
<g id="node45" class="node">
<title>kond</title>
<polygon fill="none" stroke="black" points="202.5,-808 37.5,-808 37.5,-772 202.5,-772 202.5,-808"/>
<text text-anchor="middle" x="120" y="-786.3" font-family="Courier,monospace" font-size="14.00">Maria Kondratievna</text>
</g>
<!-- smer&#45;&#45;kond -->
<g id="edge23" class="edge">
<title>smer&#45;&#45;kond</title>
<path fill="none" stroke="indigo" stroke-width="1.5" d="M690,-592.27C690,-643.36 690,-784 690,-784 690,-784 360.55,-784 202.58,-784"/>
</g>
<!-- vvsk -->
<g id="node49" class="node">
<title>vvsk</title>
<polygon fill="none" stroke="black" points="255.5,-484 164.5,-484 164.5,-448 255.5,-448 255.5,-484"/>
<text text-anchor="middle" x="210" y="-462.3" font-family="Courier,monospace" font-size="14.00">Varvinsky</text>
</g>
<!-- smer&#45;&#45;vvsk -->
<g id="edge36" class="edge">
<title>smer&#45;&#45;vvsk</title>
<path fill="none" stroke="indigo" stroke-width="1.5" d="M664,-556C664,-538.32 664,-514 664,-514 664,-514 221,-514 221,-514 221,-514 221,-497.74 221,-484.15"/>
</g>
<!-- grig -->
<g id="node11" class="node">
<title>grig</title>
<polygon fill="white" stroke="black" points="827,-700 753,-700 753,-664 827,-664 827,-700"/>
<text text-anchor="middle" x="790" y="-678.3" font-family="Courier,monospace" font-size="14.00">Grigory</text>
</g>
<!-- grig&#45;&#45;dmit -->
<g id="edge17" class="edge">
<title>grig&#45;&#45;dmit</title>
<path fill="none" stroke="green" stroke-width="1.5" d="M827,-682C859.96,-682 903,-682 903,-682 903,-682 903,-574 903,-574 903,-574 1085.26,-574 1161.79,-574"/>
</g>
<!-- grig&#45;&#45;smer -->
<g id="edge20" class="edge">
<title>grig&#45;&#45;smer</title>
<path fill="none" stroke="green" stroke-width="1.5" d="M761,-663.68C761,-632.87 761,-574 761,-574 761,-574 751.63,-574 739.7,-574"/>
</g>
<!-- marf -->
<g id="node12" class="node">
<title>marf</title>
<polygon fill="white" stroke="black" points="827,-592 769,-592 769,-556 827,-556 827,-592"/>
<text text-anchor="middle" x="798" y="-570.3" font-family="Courier,monospace" font-size="14.00">Marfa</text>
</g>
<!-- grig&#45;&#45;marf -->
<g id="edge5" class="edge">
<title>grig&#45;&#45;marf</title>
<path fill="none" stroke="red" stroke-width="1.5" d="M798,-663.68C798,-643.7 798,-611.92 798,-592.05"/>
</g>
<!-- supe -->
<g id="node13" class="node">
<title>supe</title>
<polygon fill="white" stroke="black" points="2378.5,-700 2295.5,-700 2295.5,-664 2378.5,-664 2378.5,-700"/>
<text text-anchor="middle" x="2337" y="-678.3" font-family="Courier,monospace" font-size="14.00">Superior</text>
</g>
<!-- pais -->
<g id="node14" class="node">
<title>pais</title>
<polygon fill="white" stroke="black" points="2266,-592 2200,-592 2200,-556 2266,-556 2266,-592"/>
<text text-anchor="middle" x="2233" y="-570.3" font-family="Courier,monospace" font-size="14.00">Paissy</text>
</g>
<!-- fera -->
<g id="node15" class="node">
<title>fera</title>
<polygon fill="white" stroke="black" points="2378.5,-592 2295.5,-592 2295.5,-556 2378.5,-556 2378.5,-592"/>
<text text-anchor="middle" x="2337" y="-570.3" font-family="Courier,monospace" font-size="14.00">Ferapont</text>
</g>
<!-- zosi -->
<g id="node16" class="node">
<title>zosi</title>
<polygon fill="white" stroke="black" points="2266,-700 2200,-700 2200,-664 2266,-664 2266,-700"/>
<text text-anchor="middle" x="2233" y="-678.3" font-family="Courier,monospace" font-size="14.00">Zosima</text>
</g>
<!-- zosi&#45;&#45;alyo -->
<g id="edge21" class="edge">
<title>zosi&#45;&#45;alyo</title>
<path fill="none" stroke="green" stroke-width="1.5" d="M2222,-663.97C2222,-644.42 2222,-616 2222,-616 2222,-616 1547.5,-616 1547.5,-616 1547.5,-616 1547.5,-603.44 1547.5,-592.06"/>
</g>
<!-- zosi&#45;&#45;pais -->
<g id="edge48" class="edge">
<title>zosi&#45;&#45;pais</title>
<path fill="none" stroke="dodgerblue" stroke-width="1.5" d="M2244,-663.68C2244,-643.7 2244,-611.92 2244,-592.05"/>
</g>
<!-- zosi&#45;&#45;fera -->
<g id="edge30" class="edge">
<title>zosi&#45;&#45;fera</title>
<path fill="none" stroke="indigo" stroke-width="1.5" d="M2266.16,-682C2274.31,-682 2280.75,-682 2280.75,-682 2280.75,-682 2280.75,-574 2280.75,-574 2280.75,-574 2286.95,-574 2295.24,-574"/>
</g>
<!-- khok -->
<g id="node17" class="node">
<title>khok</title>
<polygon fill="white" stroke="black" points="1434.5,-160 1277.5,-160 1277.5,-124 1434.5,-124 1434.5,-160"/>
<text text-anchor="middle" x="1356" y="-138.3" font-family="Courier,monospace" font-size="14.00">Madame Khokhlakov</text>
</g>
<!-- khok&#45;&#45;liza -->
<g id="edge54" class="edge">
<title>khok&#45;&#45;liza</title>
<path fill="none" stroke="coral" stroke-width="1.5" d="M1407.75,-123.68C1407.75,-103.7 1407.75,-71.92 1407.75,-52.05"/>
</g>
<!-- raki&#45;&#45;khok -->
<g id="edge14" class="edge">
<title>raki&#45;&#45;khok</title>
<path fill="none" stroke="magenta" stroke-width="1.5" d="M1397.75,-231.68C1397.75,-211.7 1397.75,-179.92 1397.75,-160.05"/>
</g>
<!-- perk -->
<g id="node20" class="node">
<title>perk</title>
<polygon fill="white" stroke="black" points="1331.5,-268 1240.5,-268 1240.5,-232 1331.5,-232 1331.5,-268"/>
<text text-anchor="middle" x="1286" y="-246.3" font-family="Courier,monospace" font-size="14.00">Perkhotin</text>
</g>
<!-- perk&#45;&#45;khok -->
<g id="edge15" class="edge">
<title>perk&#45;&#45;khok</title>
<path fill="none" stroke="magenta" stroke-width="1.5" d="M1304.5,-231.68C1304.5,-211.7 1304.5,-179.92 1304.5,-160.05"/>
</g>
<!-- grus&#45;&#45;raki -->
<g id="edge50" class="edge">
<title>grus&#45;&#45;raki</title>
<path fill="none" stroke="coral" stroke-width="1.5" d="M976.6,-347C1094.05,-347 1397.75,-347 1397.75,-347 1397.75,-347 1397.75,-296.34 1397.75,-268.24"/>
</g>
<!-- feny -->
<g id="node50" class="node">
<title>feny</title>
<polygon fill="none" stroke="black" points="960,-268 902,-268 902,-232 960,-232 960,-268"/>
<text text-anchor="middle" x="931" y="-246.3" font-family="Courier,monospace" font-size="14.00">Fenya</text>
</g>
<!-- grus&#45;&#45;feny -->
<g id="edge32" class="edge">
<title>grus&#45;&#45;feny</title>
<path fill="none" stroke="indigo" stroke-width="1.5" d="M931,-339.68C931,-319.7 931,-287.92 931,-268.05"/>
</g>
<!-- maxi -->
<g id="node23" class="node">
<title>maxi</title>
<polygon fill="white" stroke="black" points="695,-376 621,-376 621,-340 695,-340 695,-376"/>
<text text-anchor="middle" x="658" y="-354.3" font-family="Courier,monospace" font-size="14.00">Maximov</text>
</g>
<!-- kalg&#45;&#45;maxi -->
<g id="edge49" class="edge">
<title>kalg&#45;&#45;maxi</title>
<path fill="none" stroke="dodgerblue" stroke-width="1.5" d="M716.49,-466C702.91,-466 691.25,-466 691.25,-466 691.25,-466 691.25,-407.13 691.25,-376.32"/>
</g>
<!-- kalg&#45;&#45;pyot -->
<g id="edge52" class="edge">
<title>kalg&#45;&#45;pyot</title>
<path fill="none" stroke="coral" stroke-width="1.5" d="M720.25,-447.97C720.25,-428.42 720.25,-400 720.25,-400 720.25,-400 404.5,-400 404.5,-400 404.5,-400 404.5,-387.44 404.5,-376.06"/>
</g>
<!-- trif -->
<g id="node24" class="node">
<title>trif</title>
<polygon fill="white" stroke="black" points="687.5,-484 530.5,-484 530.5,-448 687.5,-448 687.5,-484"/>
<text text-anchor="middle" x="609" y="-462.3" font-family="Courier,monospace" font-size="14.00">Trifon Borisovich</text>
</g>
<!-- panm -->
<g id="node25" class="node">
<title>panm</title>
<polygon fill="white" stroke="black" points="977.5,-484 828.5,-484 828.5,-448 977.5,-448 977.5,-484"/>
<text text-anchor="middle" x="903" y="-462.3" font-family="Courier,monospace" font-size="14.00">Pan Mussyalovich</text>
</g>
<!-- panm&#45;&#45;grus -->
<g id="edge16" class="edge">
<title>panm&#45;&#45;grus</title>
<path fill="none" stroke="magenta" stroke-width="1.5" d="M931,-447.68C931,-427.7 931,-395.92 931,-376.05"/>
</g>
<!-- panv -->
<g id="node26" class="node">
<title>panv</title>
<polygon fill="white" stroke="black" points="856,-376 724,-376 724,-340 856,-340 856,-376"/>
<text text-anchor="middle" x="790" y="-354.3" font-family="Courier,monospace" font-size="14.00">Pan Vrublevsky</text>
</g>
<!-- panm&#45;&#45;panv -->
<g id="edge47" class="edge">
<title>panm&#45;&#45;panv</title>
<path fill="none" stroke="dodgerblue" stroke-width="1.5" d="M842.25,-447.68C842.25,-427.7 842.25,-395.92 842.25,-376.05"/>
</g>
<!-- shme -->
<g id="node27" class="node">
<title>shme</title>
<polygon fill="white" stroke="black" points="615.5,-700 524.5,-700 524.5,-664 615.5,-664 615.5,-700"/>
<text text-anchor="middle" x="570" y="-678.3" font-family="Courier,monospace" font-size="14.00">Shmertsov</text>
</g>
<!-- shme&#45;&#45;trif -->
<g id="edge29" class="edge">
<title>shme&#45;&#45;trif</title>
<path fill="none" stroke="indigo" stroke-width="1.5" d="M573,-663.96C573,-623.3 573,-524.9 573,-484.15"/>
</g>
<!-- maka -->
<g id="node28" class="node">
<title>maka</title>
<polygon fill="white" stroke="black" points="157,-700 83,-700 83,-664 157,-664 157,-700"/>
<text text-anchor="middle" x="120" y="-678.3" font-family="Courier,monospace" font-size="14.00">Makarov</text>
</g>
<!-- maka&#45;&#45;perk -->
<g id="edge40" class="edge">
<title>maka&#45;&#45;perk</title>
<path fill="none" stroke="indigo" stroke-width="1.5" d="M120,-663.86C120,-605.13 120,-424 120,-424 120,-424 1259,-424 1259,-424 1259,-424 1259,-312.97 1259,-268.29"/>
</g>
<!-- maka&#45;&#45;vvsk -->
<g id="edge39" class="edge">
<title>maka&#45;&#45;vvsk</title>
<path fill="none" stroke="indigo" stroke-width="1.5" d="M157.02,-682C167.2,-682 175.5,-682 175.5,-682 175.5,-682 175.5,-535.96 175.5,-484.04"/>
</g>
<!-- fety -->
<g id="node29" class="node">
<title>fety</title>
<polygon fill="white" stroke="black" points="293.5,-700 186.5,-700 186.5,-664 293.5,-664 293.5,-700"/>
<text text-anchor="middle" x="240" y="-678.3" font-family="Courier,monospace" font-size="14.00">Fetyukovich</text>
</g>
<!-- nely -->
<g id="node30" class="node">
<title>nely</title>
<polygon fill="white" stroke="black" points="494.5,-592 411.5,-592 411.5,-556 494.5,-556 494.5,-592"/>
<text text-anchor="middle" x="453" y="-570.3" font-family="Courier,monospace" font-size="14.00">Nelyudov</text>
</g>
<!-- nely&#45;&#45;dmit -->
<g id="edge34" class="edge">
<title>nely&#45;&#45;dmit</title>
<path fill="none" stroke="indigo" stroke-width="1.5" d="M466.83,-555.8C466.83,-549.97 466.83,-545 466.83,-545 466.83,-545 1171,-545 1171,-545 1171,-545 1171,-549.97 1171,-555.8"/>
</g>
<!-- ippo -->
<g id="node31" class="node">
<title>ippo</title>
<polygon fill="white" stroke="black" points="495.5,-700 322.5,-700 322.5,-664 495.5,-664 495.5,-700"/>
<text text-anchor="middle" x="409" y="-678.3" font-family="Courier,monospace" font-size="14.00">Ippolit Kirillovich</text>
</g>
<!-- ippo&#45;&#45;dmit -->
<g id="edge33" class="edge">
<title>ippo&#45;&#45;dmit</title>
<path fill="none" stroke="indigo" stroke-width="1.5" d="M466.83,-663.94C466.83,-652.56 466.83,-640 466.83,-640 466.83,-640 1178.5,-640 1178.5,-640 1178.5,-640 1178.5,-611.58 1178.5,-592.03"/>
</g>
<!-- ippo&#45;&#45;nely -->
<g id="edge46" class="edge">
<title>ippo&#45;&#45;nely</title>
<path fill="none" stroke="dodgerblue" stroke-width="1.5" d="M439.17,-663.68C439.17,-643.7 439.17,-611.92 439.17,-592.05"/>
</g>
<!-- sneg_arin -->
<!-- sneg&#45;&#45;sneg_arin -->
<g id="edge6" class="edge">
<title>sneg&#45;&#45;sneg_arin</title>
<path fill="none" stroke="red" stroke-width="1.5" d="M1951.77,-790C1966.31,-790 1977.78,-790 1980.43,-790"/>
</g>
<!-- arin -->
<g id="node33" class="node">
<title>arin</title>
<polygon fill="white" stroke="black" points="2069,-808 2011,-808 2011,-772 2069,-772 2069,-808"/>
<text text-anchor="middle" x="2040" y="-786.3" font-family="Courier,monospace" font-size="14.00">Arina</text>
</g>
<!-- sneg_arin&#45;&#45;arin -->
<g id="edge7" class="edge">
<title>sneg_arin&#45;&#45;arin</title>
<path fill="none" stroke="red" stroke-width="1.5" d="M1981.66,-790C1984.73,-790 1997.93,-790 2011,-790"/>
</g>
<!-- sneg_child -->
<!-- sneg_arin&#45;&#45;sneg_child -->
<g id="edge59" class="edge">
<title>sneg_arin&#45;&#45;sneg_child</title>
<path fill="none" stroke="coral" stroke-width="1.5" d="M1981,-789.31C1981,-780.11 1981,-682 1981,-682 1981,-682 1962.11,-682 1958.57,-682"/>
</g>
<!-- ilyu -->
<g id="node36" class="node">
<title>ilyu</title>
<polygon fill="white" stroke="black" points="2066,-592 1992,-592 1992,-556 2066,-556 2066,-592"/>
<text text-anchor="middle" x="2029" y="-570.3" font-family="Courier,monospace" font-size="14.00">Ilyusha</text>
</g>
<!-- sneg_child&#45;&#45;ilyu -->
<g id="edge60" class="edge">
<title>sneg_child&#45;&#45;ilyu</title>
<path fill="none" stroke="coral" stroke-width="1.5" d="M1958,-682.83C1958,-685.06 1958,-691 1958,-691 1958,-691 2001.5,-691 2001.5,-691 2001.5,-691 2001.5,-624.84 2001.5,-592.02"/>
</g>
<!-- nina -->
<g id="node37" class="node">
<title>nina</title>
<polygon fill="white" stroke="black" points="1963,-592 1909,-592 1909,-556 1963,-556 1963,-592"/>
<text text-anchor="middle" x="1936" y="-570.3" font-family="Courier,monospace" font-size="14.00">Nina</text>
</g>
<!-- sneg_child&#45;&#45;nina -->
<g id="edge61" class="edge">
<title>sneg_child&#45;&#45;nina</title>
<path fill="none" stroke="coral" stroke-width="1.5" d="M1958,-681.31C1958,-674.63 1958,-621.01 1958,-592.18"/>
</g>
<!-- varv -->
<g id="node38" class="node">
<title>varv</title>
<polygon fill="white" stroke="black" points="1880,-592 1806,-592 1806,-556 1880,-556 1880,-592"/>
<text text-anchor="middle" x="1843" y="-570.3" font-family="Courier,monospace" font-size="14.00">Varvara</text>
</g>
<!-- sneg_child&#45;&#45;varv -->
<g id="edge62" class="edge">
<title>sneg_child&#45;&#45;varv</title>
<path fill="none" stroke="coral" stroke-width="1.5" d="M1957.27,-682C1947.47,-682 1843,-682 1843,-682 1843,-682 1843,-623.13 1843,-592.32"/>
</g>
<!-- ilyu&#45;&#45;smer -->
<g id="edge24" class="edge">
<title>ilyu&#45;&#45;smer</title>
<path fill="none" stroke="indigo" stroke-width="1.5" d="M2029,-555.75C2029,-541.82 2029,-525 2029,-525 2029,-525 724.17,-525 724.17,-525 724.17,-525 724.17,-541.82 724.17,-555.75"/>
</g>
<!-- koly -->
<g id="node39" class="node">
<title>koly</title>
<polygon fill="white" stroke="black" points="2151,-700 2093,-700 2093,-664 2151,-664 2151,-700"/>
<text text-anchor="middle" x="2122" y="-678.3" font-family="Courier,monospace" font-size="14.00">Kolya</text>
</g>
<!-- koly&#45;&#45;alyo -->
<g id="edge44" class="edge">
<title>koly&#45;&#45;alyo</title>
<path fill="none" stroke="dodgerblue" stroke-width="1.5" d="M2092.77,-675C2013.81,-675 1802.17,-675 1802.17,-675 1802.17,-675 1802.17,-568 1802.17,-568 1802.17,-568 1642.14,-568 1571.19,-568"/>
</g>
<!-- koly&#45;&#45;ilyu -->
<g id="edge42" class="edge">
<title>koly&#45;&#45;ilyu</title>
<path fill="none" stroke="dodgerblue" stroke-width="1.5" d="M2092.8,-669C2068.72,-669 2038.5,-669 2038.5,-669 2038.5,-669 2038.5,-619.92 2038.5,-592.32"/>
</g>
<!-- smur -->
<g id="node40" class="node">
<title>smur</title>
<polygon fill="white" stroke="black" points="2161,-592 2095,-592 2095,-556 2161,-556 2161,-592"/>
<text text-anchor="middle" x="2128" y="-570.3" font-family="Courier,monospace" font-size="14.00">Smurov</text>
</g>
<!-- koly&#45;&#45;smur -->
<g id="edge43" class="edge">
<title>koly&#45;&#45;smur</title>
<path fill="none" stroke="dodgerblue" stroke-width="1.5" d="M2123,-663.68C2123,-643.7 2123,-611.92 2123,-592.05"/>
</g>
<!-- kuzm&#45;&#45;grus -->
<g id="edge22" class="edge">
<title>kuzm&#45;&#45;grus</title>
<path fill="none" stroke="green" stroke-width="1.5" d="M1127,-447.57C1127,-419.18 1127,-368 1127,-368 1127,-368 1034.88,-368 976.95,-368"/>
</g>
<!-- kond&#45;&#45;maka -->
<g id="edge41" class="edge">
<title>kond&#45;&#45;maka</title>
<path fill="none" stroke="indigo" stroke-width="1.5" d="M120,-771.68C120,-751.7 120,-719.92 120,-700.05"/>
</g>
<!-- foma -->
<g id="node46" class="node">
<title>foma</title>
<polygon fill="none" stroke="black" points="54,-700 0,-700 0,-664 54,-664 54,-700"/>
<text text-anchor="middle" x="27" y="-678.3" font-family="Courier,monospace" font-size="14.00">Foma</text>
</g>
<!-- kond&#45;&#45;foma -->
<g id="edge27" class="edge">
<title>kond&#45;&#45;foma</title>
<path fill="none" stroke="indigo" stroke-width="1.5" d="M45.75,-771.68C45.75,-751.7 45.75,-719.92 45.75,-700.05"/>
</g>
<!-- yefi -->
<g id="node47" class="node">
<title>yefi</title>
<polygon fill="none" stroke="black" points="1107,-700 1033,-700 1033,-664 1107,-664 1107,-700"/>
<text text-anchor="middle" x="1070" y="-678.3" font-family="Courier,monospace" font-size="14.00">Polenov</text>
</g>
<!-- yefi&#45;&#45;ivan -->
<g id="edge18" class="edge">
<title>yefi&#45;&#45;ivan</title>
<path fill="none" stroke="green" stroke-width="1.5" d="M1107.01,-668C1179.27,-668 1332.17,-668 1332.17,-668 1332.17,-668 1332.17,-619.44 1332.17,-592.12"/>
</g>
<!-- yefi&#45;&#45;alyo -->
<g id="edge19" class="edge">
<title>yefi&#45;&#45;alyo</title>
<path fill="none" stroke="green" stroke-width="1.5" d="M1107.25,-672C1213.65,-672 1511.33,-672 1511.33,-672 1511.33,-672 1511.33,-620.82 1511.33,-592.43"/>
</g>
<!-- herz -->
<g id="node48" class="node">
<title>herz</title>
<polygon fill="none" stroke="black" points="1778.5,-700 1671.5,-700 1671.5,-664 1778.5,-664 1778.5,-700"/>
<text text-anchor="middle" x="1725" y="-678.3" font-family="Courier,monospace" font-size="14.00">Herzenstube</text>
</g>
<!-- herz&#45;&#45;dmit -->
<g id="edge28" class="edge">
<title>herz&#45;&#45;dmit</title>
<path fill="none" stroke="indigo" stroke-width="1.5" d="M1671.5,-676C1539.98,-676 1211.5,-676 1211.5,-676 1211.5,-676 1211.5,-621.57 1211.5,-592.24"/>
</g>
</g>
</svg>
